<?xml version="1.0" encoding="UTF-8"?>
<svg id="Layer_1" data-name="Layer 1" xmlns="http://www.w3.org/2000/svg" viewBox="0 0 520.86 572.06">
  <defs>
    <style>
      .cls-1 {
        fill: #57a946;
      }
    </style>
  </defs>
  <path class="cls-1" d="m119.38,176.67s0-59.09-74.32-97.17c0,0-31.68-15.23-42.65-39.29,0,0-24.06,140.73,79.81,188.55,0,0,21.32-38.99-54.53-132.2-9.14-11.58,45.69,20.1,68.84,120.02"/>
  <path class="cls-1" d="m340.83,511.44s7.92,40.82,67.62,48.13c0,0,71.58,14.01,91.08-17.67,0,0-26.2-17.36-35.94-24.98-55.44-42.34-108.44-31.07-108.44-31.07,37.16,43.25,88.64,49.96,83.46,51.78,0,0-55.74-2.74-91.69-44.47"/>
  <path class="cls-1" d="m85.57,84.99l28.94,32.29c35.94-28.02,44.47-53.31,44.47-53.31-8.53,41.12-38.69,62.14-37.16,64.88,5.79,9.44,10.66,21.02,10.66,35.03,0,0,57.88-17.67,57.88-163.88,0,0-9.75,21.93-41.43,32.9-31.68,10.66-52.7,38.38-63.36,52.09Z"/>
  <path class="cls-1" d="m408.46,480.37s57.88-31.98,87.42-11.58c0,0,10.66,5.79,24.98,3.66,0,0-15.54,40.21-52.39,36.86l-12.79-9.75c9.14-9.44,32.9-17.36,31.07-17.67-8.22-1.52-43.86,11.88-47.21,9.75-7.92-4.87-21.02-10.97-31.07-11.27Z"/>
  <path class="cls-1" d="m178.78,572.06c-4.26,0-8.22-2.13-10.36-6.09-5.18-8.83-24.67-53.61-27.11-58.48-1.52-3.05-1.22-6.7,0-9.75,1.52-3.05,4.26-5.48,7.31-6.4l56.96-17.06c6.4-1.83,13.1,1.83,14.93,7.92,1.83,6.4-1.83,13.1-7.92,14.93l-43.86,13.1c8.22,18.28,17.67,39.29,20.41,43.86,3.35,5.79,1.22,13.1-4.57,16.45-1.83.91-3.66,1.52-5.79,1.52Z"/>
  <path class="cls-1" d="m300.62,193.12c-5.48,0-10.36-3.66-11.58-9.14-1.52-6.4,2.44-12.79,8.83-14.32l44.47-10.36c-7.01-18.58-15.23-40.21-17.67-45.08-3.05-6.09-.61-13.1,5.48-16.14,5.79-3.05,13.1-.61,16.14,5.48,4.57,9.14,21.32,54.83,23.45,60.01,1.22,3.35.91,6.7-.61,9.75s-4.57,5.18-7.92,6.09l-57.88,13.71c-.91-.3-1.83,0-2.74,0Z"/>
  <path class="cls-1" d="m246.1,538.24c-31.37,0-61.53-7.01-89.86-20.41-6.09-2.74-8.53-10.05-5.48-16.14s10.05-8.53,16.14-5.48c24.67,11.88,51.48,17.97,79.2,17.97,100.52,0,182.46-81.94,182.46-182.46,0-49.04-19.19-95.34-54.22-129.76-4.87-4.57-4.87-12.18,0-17.06s12.18-4.87,17.06,0c39.6,38.99,61.23,91.38,61.23,146.82,0,113.92-92.6,206.53-206.53,206.53Z"/>
  <path class="cls-1" d="m127,497.43c-2.44,0-5.18-.91-7.31-2.44-50.87-39.29-80.11-99-80.11-163.27,0-113.92,92.6-206.53,206.53-206.53,35.94,0,71.58,9.44,102.65,27.41,5.79,3.35,7.62,10.66,4.26,16.45-3.35,5.79-10.66,7.62-16.45,4.57-27.41-15.84-58.79-24.06-90.77-24.06-100.22-.3-181.85,81.64-181.85,182.16,0,56.96,25.89,109.35,70.67,144.08,5.18,3.96,6.09,11.58,2.13,16.75-2.44,3.35-6.09,4.87-9.75,4.87Z"/>
  <g>
    <path class="cls-1" d="m187.01,285.42v18.89h-55.13v23.15h51.17v18.58h-51.17v25.89h55.44v18.58h-77.98v-105.09h77.68Z"/>
    <path class="cls-1" d="m276.56,379.54c-2.13,2.44-4.26,4.57-6.4,6.4-2.44,1.83-4.87,3.05-7.31,3.96-2.44.91-5.18,1.83-7.62,2.13-2.74.3-5.18.61-7.62.61-5.48,0-10.36-.61-14.93-1.83-4.57-1.22-8.83-3.05-12.79-5.48-3.96-2.44-7.31-5.18-10.05-8.53-3.05-3.35-5.48-7.01-7.31-10.97-2.13-3.96-3.66-8.22-4.57-13.1-.91-4.57-1.52-9.44-1.52-14.62s.61-10.05,1.52-14.93c.91-4.87,2.44-9.14,4.57-13.4,2.13-3.96,4.57-7.92,7.31-11.27,3.05-3.35,6.4-6.4,10.05-8.53,3.96-2.44,8.22-4.26,12.79-5.48s9.75-1.83,15.23-1.83c3.66,0,7.01.3,10.66,1.22s6.7,1.83,10.05,3.35c3.05,1.52,6.09,3.05,8.83,5.18s5.18,4.57,7.31,7.31,3.66,5.79,5.18,9.14,2.13,7.01,2.74,10.97h-22.24c-.61-2.74-1.52-5.48-3.05-7.62-1.22-2.13-3.05-3.96-4.87-5.48s-3.96-2.44-6.4-3.35c-2.44-.61-4.87-1.22-7.62-1.22-3.35,0-6.4.61-9.14,1.52s-5.18,2.13-7.31,3.96c-2.13,1.52-3.96,3.66-5.48,5.79s-2.74,4.87-3.66,7.31c-.91,2.74-1.83,5.48-2.13,8.53-.61,3.05-.61,6.09-.61,9.14,0,2.74.3,5.79.61,8.53.61,2.74,1.22,5.48,2.13,8.22.91,2.44,2.13,4.87,3.66,7.01,1.52,2.13,3.35,3.96,5.48,5.48,2.13,1.52,4.57,2.74,7.31,3.66,2.74.91,5.79,1.22,9.14,1.22,3.66,0,6.7-.61,9.75-1.52s5.48-2.44,7.62-4.26,3.96-4.26,5.18-7.01c1.22-2.74,2.13-6.09,2.44-9.75h-23.15v-18.58h44.17v58.18h-14.62l-3.35-10.05Z"/>
    <path class="cls-1" d="m360.94,285.42c5.79,0,10.97.61,15.54,2.13,4.26,1.52,8.22,3.66,10.97,6.4,3.05,2.74,5.18,6.4,6.7,10.36s2.13,8.83,2.13,14.01-.61,9.75-2.13,13.71-3.66,7.31-6.7,10.05-6.7,4.87-10.97,6.09-9.44,2.13-15.54,2.13h-24.98v40.21h-22.54v-105.09h47.52Zm-4.57,46.61c3.05,0,5.48-.3,7.62-.91,2.13-.61,3.96-1.52,5.48-2.74s2.44-2.74,3.05-4.26c.61-1.83.91-3.66.91-5.79s-.3-3.96-.91-5.79c-.61-1.83-1.83-3.35-3.05-4.26-1.52-1.22-3.35-2.13-5.48-2.74s-4.57-1.22-7.62-1.22h-20.41v27.72h20.41Z"/>
  </g>
</svg>